# xmcd
#
# Track frame offsets:
#	150
#	25447
#	42450
#	57552
#	77852
#	93917
#	112112
#	128782
#	145617
#	166590
#	186037
#	203140
#	219490
#	236407
#	253225
#	264537
#	283352
#	301037
#	317035
#
# Disc length: 4524 seconds
#
# Revision: 1
# Processed by: cddbd v1.5PL3 Copyright (c) Steve Scherf et al.
# Submitted via: CDex 1.50Beta5
#
DISCID=1611aa13
DTITLE=Chico and The Gypsies - Nomade
DYEAR=1900
DGENRE=Soundtrack -> General Soundtrack
TTITLE0=El Verano
TTITLE1=Pharaon
TTITLE2=La Bamba
TTITLE3=Ben Ben Maria
TTITLE4=Nomade-"Ya Rayah"
TTITLE5=Moorea
TTITLE6=Marina
TTITLE7=Bamboleo
TTITLE8=Habla Me
TTITLE9=A Mi Manera-"My Way"
TTITLE10=Vagabundo
TTITLE11=DJobi DJoba
TTITLE12=Fragilidad
TTITLE13=Baila Me
TTITLE14=El Ultimo Baile
TTITLE15=Un Amor
TTITLE16=Hace Me L'Amor
TTITLE17=Alegria
TTITLE18=Mira Me
EXTD=
EXTT0=
EXTT1=
EXTT2=
EXTT3=
EXTT4=
EXTT5=
EXTT6=
EXTT7=
EXTT8=
EXTT9=
EXTT10=
EXTT11=
EXTT12=
EXTT13=
EXTT14=
EXTT15=
EXTT16=
EXTT17=
EXTT18=
PLAYORDER=
